Coordinates
version=1
nRows=8
nColumns=40
inDegrees=yes

Units are S.I. units (second, meters, Newtons, ...)
Angles are in degrees.

endheader
time	pelvis_tilt	pelvis_list	pelvis_rotation	pelvis_tx	pelvis_ty	pelvis_tz	hip_flexion_r	hip_adduction_r	hip_rotation_r	knee_angle_r	knee_angle_r_beta	ankle_angle_r	subtalar_angle_r	mtp_angle_r	hip_flexion_l	hip_adduction_l	hip_rotation_l	knee_angle_l	knee_angle_l_beta	ankle_angle_l	subtalar_angle_l	mtp_angle_l	lumbar_extension	lumbar_bending	lumbar_rotation	arm_flex_r	arm_add_r	arm_rot_r	elbow_flex_r	pro_sup_r	wrist_flex_r	wrist_dev_r	arm_flex_l	arm_add_l	arm_rot_l	elbow_flex_l	pro_sup_l	wrist_flex_l	wrist_dev_l
     20.75000000	     -3.49224919	     -3.70762365	      0.80121652	      0.80436751	      0.92919528	      0.42060631	     27.52705749	     -7.12398772	     -6.81630080	     66.83090178	     66.83090178	      1.52240985	    -14.05439051	     -0.80278115	     15.97278426	     -2.85263644	     -5.84017195	     23.92922292	     23.92922292	     14.14639636	    -10.29553258	      0.63186430	    -10.03540777	      5.82318725	      1.95993713	      8.12463775	    -12.28351797	     -1.90897851	     35.21256500	     46.22113908	      0.00000000	      0.00000000	     12.27625332	    -13.89739591	     -7.05701671	     58.96956728	     46.68210484	      0.00000000	      0.00000000
     20.76321429	     -3.58371885	     -3.66269644	      0.37509995	      0.80340972	      0.93040044	      0.42048722	     28.51972999	     -6.99042550	     -6.73054564	     65.46945473	     65.46945473	      1.74327118	    -13.81312193	     -0.93126364	     14.97681590	     -2.82646065	     -6.39373476	     22.80721011	     22.80721011	     14.22562677	     -9.81882585	      0.68606942	    -10.09267382	      5.68119665	      2.21362431	      6.33137844	    -12.48145845	     -1.78175158	     34.07560629	     46.24140503	      0.00000000	      0.00000000	     13.27043947	    -14.15196435	     -7.39281938	     60.11956898	     46.73797797	      0.00000000	      0.00000000
     20.77642857	     -3.64479383	     -3.62789165	     -0.01222334	      0.80248233	      0.93143515	      0.42041280	     29.36179852	     -6.85491345	     -6.73244100	     63.92783924	     63.92783924	      1.94179316	    -13.49102248	     -1.10057899	     14.01620537	     -2.83030005	     -7.01069008	     21.80340052	     21.80340052	     14.30515504	     -9.20605118	      0.52110848	    -10.17059487	      5.52415051	      2.42754155	      4.57850450	    -12.68409540	     -1.65282268	     32.81126353	     46.26688004	      0.00000000	      0.00000000	     14.18256528	    -14.39045358	     -7.75295608	     61.57482343	     46.80059250	      0.00000000	      0.00000000
     20.78964286	     -3.69208771	     -3.60286059	     -0.37932881	      0.80151820	      0.93237127	      0.42038954	     30.07480125	     -6.67998952	     -6.75377382	     62.16423434	     62.16423434	      2.10308565	    -13.17238998	     -1.20397226	     13.06625213	     -2.83672827	     -7.64803366	     20.82231319	     20.82231319	     14.35732874	     -8.52100128	      0.22147288	    -10.28623000	      5.37705586	      2.56645343	      2.94879094	    -12.84123605	     -1.53018936	     31.49174309	     46.29596946	      0.00000000	      0.00000000	     14.99023363	    -14.69455744	     -8.15965139	     63.19202246	     46.86925056	      0.00000000	      0.00000000
     20.80285714	     -3.76825209	     -3.59084689	     -0.69029027	      0.80055371	      0.93307997	      0.42047621	     30.67913923	     -6.49985016	     -6.86504696	     60.13231805	     60.13231805	      2.21234135	    -12.84870990	     -1.23600892	     12.20956686	     -2.86142208	     -8.27215619	     19.92293879	     19.92293879	     14.37830183	     -7.81671867	     -0.26301649	    -10.34518894	      5.23477090	      2.51624640	      1.50072489	    -12.93356019	     -1.42779418	     30.13556246	     46.32898623	      0.00000000	      0.00000000	     15.61078800	    -15.06388132	     -8.63941474	     64.93042558	     46.94643580	      0.00000000	      0.00000000
     20.81607143	     -3.88889091	     -3.62725983	     -0.95289104	      0.79953154	      0.93348930	      0.42068361	     31.18868324	     -6.25966725	     -7.05806244	     57.81157038	     57.81157038	      2.25492001	    -12.58928882	     -1.44504759	     11.46568706	     -2.95281241	     -8.89734415	     19.09698477	     19.09698477	     14.19208942	     -7.10145356	     -1.42416367	    -10.35276632	      5.13343953	      1.95620826	      0.62230429	    -12.88995140	     -1.35098384	     28.31286033	     46.38239779	      0.00000000	      0.00000000	     15.61503991	    -15.65479293	     -9.58555807	     67.34210717	     47.08549262	      0.00000000	      0.00000000
     20.82928571	     -4.11343564	     -3.61570129	     -1.14173842	      0.79838671	      0.93357732	      0.42093345	     31.71334281	     -6.08915012	     -7.30824505	     55.26518463	     55.26518463	      2.40870883	    -12.21373695	     -1.18892977	     10.97447816	     -2.93185292	     -9.14715826	     18.49717884	     18.49717884	     14.33187166	     -6.82093175	     -1.45657962	    -10.19604919	      5.00407969	      1.66495670	     -0.84393520	    -12.98444725	     -1.34062510	     27.69344039	     46.39398612	      0.00000000	      0.00000000	     16.37368870	    -16.19486519	     -9.91712624	     67.97292470	     47.12629795	      0.00000000	      0.00000000
     20.84250000	     -4.17888386	     -3.59956121	     -1.33714870	      0.79738602	      0.93383684	      0.42132146	     31.85565755	     -5.90209895	     -7.60415440	     52.31948159	     52.31948159	      2.58223712	    -11.76113222	     -0.94374740	     10.19773755	     -2.92336585	     -9.58037217	     17.70158074	     17.70158074	     14.44951190	     -6.21772894	     -1.60214453	    -10.25535251	      4.84744160	      1.68095835	     -2.33548126	    -13.14928122	     -1.34665388	     27.00796706	     46.40943557	      0.00000000	      0.00000000	     17.11660781	    -16.34695874	    -10.23887610	     69.07067170	     47.17472585	      0.00000000	      0.00000000
